<?xml version="1.0" encoding="UTF-8"?>
<svg id="_レイヤー_2" data-name="レイヤー 2" xmlns="http://www.w3.org/2000/svg" viewBox="0 0 78 76">
  <defs>
    <style>
      .cls-1 {
        fill: #333;
      }

      .cls-1, .cls-2 {
        stroke-width: 0px;
      }

      .cls-3 {
        fill: none;
      }

      .cls-3, .cls-4 {
        stroke: #fff;
        stroke-miterlimit: 10;
      }

      .cls-5 {
        font-family: Asap-Medium, Asap;
        font-size: 14px;
        font-weight: 500;
      }

      .cls-5, .cls-2, .cls-4 {
        fill: #fff;
      }
    </style>
  </defs>
  <g id="img">
    <g>
      <path class="cls-1" d="M75.68,61.74c-3.2,5.5-10.36,8.77-17.08,10.74-6.67,2.02-13.01,2.69-19.51,3.21-6.5.47-13.16.73-18.74-1.67-5.58-2.4-10.03-7.51-13.55-13.16C3.27,55.16.62,48.92.1,42.43c-.52-6.5,1.14-13.2,3.94-19.83,2.81-6.58,6.77-12.98,12.5-17.25C22.32,1.08,29.82-1.01,36.52.48c6.65,1.49,12.45,6.52,18.08,10.72,5.62,4.15,11.12,7.43,14.94,12.19,3.76,4.82,5.9,11.07,7.27,18.11,1.42,6.99,2.13,14.72-1.12,20.23Z"/>
      <g>
        <text class="cls-5" transform="translate(26.16 50.24)"><tspan x="0" y="0">Top</tspan></text>
        <g>
          <line class="cls-4" x1="39.14" y1="26.35" x2="33.25" y2="32.35"/>
          <g>
            <line class="cls-2" x1="38.37" y1="26.35" x2="44.25" y2="32.35"/>
            <line class="cls-3" x1="38.37" y1="26.35" x2="44.25" y2="32.35"/>
          </g>
        </g>
      </g>
    </g>
  </g>
</svg>