<?xml version="1.0" encoding="UTF-8"?>
<svg id="_レイヤー_2" data-name="レイヤー 2" xmlns="http://www.w3.org/2000/svg" xmlns:xlink="http://www.w3.org/1999/xlink" viewBox="0 0 143.16 43.98">
  <defs>
    <style>
      .cls-1 {
        fill: #333;
      }

      .cls-1, .cls-2 {
        stroke-width: 0px;
      }

      .cls-3 {
        clip-path: url(#clippath);
      }

      .cls-2, .cls-4, .cls-5, .cls-6 {
        fill: none;
      }

      .cls-4 {
        stroke-width: .82px;
      }

      .cls-4, .cls-5, .cls-6 {
        stroke: #333;
      }

      .cls-4, .cls-6 {
        stroke-linecap: round;
        stroke-linejoin: round;
      }

      .cls-7 {
        clip-path: url(#clippath-1);
      }

      .cls-5 {
        stroke-miterlimit: 10;
        stroke-width: .98px;
      }

      .cls-6 {
        stroke-width: .77px;
      }
    </style>
    <clipPath id="clippath">
      <circle class="cls-2" cx="21.99" cy="23.49" r="20"/>
    </clipPath>
    <clipPath id="clippath-1">
      <rect class="cls-2" x=".96" y="2.46" width="42.06" height="42.06"/>
    </clipPath>
  </defs>
  <g id="img">
    <g>
      <g>
        <path class="cls-1" d="M49.45,16.11V6.87c0-.21.19-.31.56-.31h.11c.37,0,.56.1.56.31v3.96h5.07v-3.96c0-.21.19-.31.56-.31h.11c.37,0,.56.1.56.31v9.24c0,.21-.19.31-.56.31h-.11c-.37,0-.56-.1-.56-.31v-4.21h-5.07v4.21c0,.21-.19.31-.56.31h-.11c-.37,0-.56-.1-.56-.31Z"/>
        <path class="cls-1" d="M61.08,15.52c-.56-.63-.83-1.55-.83-2.76s.28-2.15.84-2.8,1.36-.98,2.41-.98,1.81.32,2.36.97c.55.65.82,1.58.82,2.81s-.27,2.13-.8,2.77c-.54.63-1.33.94-2.37.94s-1.86-.32-2.42-.95ZM64.96,14.8c.33-.44.49-1.13.49-2.06s-.16-1.62-.49-2.07c-.33-.45-.83-.67-1.51-.67s-1.18.22-1.5.67-.48,1.14-.48,2.08.16,1.62.48,2.06.82.67,1.5.67,1.19-.22,1.51-.67Z"/>
        <path class="cls-1" d="M69.76,16.11v-4.91c0-.62-.03-1.06-.08-1.32-.06-.27-.08-.41-.08-.44,0-.11.09-.19.27-.25.18-.05.34-.08.49-.08.13,0,.23.07.29.2.06.14.11.28.14.43.03.15.05.25.06.29.3-.33.64-.58,1.02-.77.38-.19.77-.28,1.16-.28.71,0,1.27.2,1.67.6.41.4.61.96.61,1.67v4.86c0,.21-.19.31-.56.31h-.06c-.37,0-.56-.1-.56-.31v-4.75c0-.43-.12-.76-.37-1-.25-.24-.6-.36-1.06-.36-.32,0-.63.09-.94.27-.31.18-.59.42-.82.71v5.12c0,.21-.19.31-.56.31h-.06c-.37,0-.56-.1-.56-.31Z"/>
        <path class="cls-1" d="M79.48,16c-.41-.32-.73-.76-.94-1.33-.22-.57-.33-1.21-.33-1.93,0-.79.12-1.47.36-2.04.24-.56.57-.99,1-1.28.43-.29.92-.43,1.48-.43.41,0,.77.06,1.08.18.31.12.62.3.92.53v-3.53c0-.21.19-.31.56-.31h.06c.37,0,.56.1.56.31v8.15c0,.62.03,1.06.08,1.32s.08.41.08.44c0,.11-.09.19-.27.25s-.34.08-.49.08c-.13,0-.23-.07-.29-.22-.06-.14-.11-.3-.14-.46-.03-.16-.05-.26-.06-.31-.67.7-1.41,1.05-2.23,1.05-.55,0-1.03-.16-1.44-.48ZM82.13,15.2c.33-.17.64-.41.92-.71v-3.84c-.5-.42-1.08-.63-1.72-.63s-1.1.22-1.41.67c-.32.45-.48,1.09-.48,1.93,0,.91.15,1.6.45,2.09.3.49.72.73,1.27.73.32,0,.64-.08.97-.25Z"/>
        <path class="cls-1" d="M87.85,15.94c-.44-.35-.66-.88-.66-1.57,0-.74.22-1.29.67-1.66.44-.37.99-.61,1.63-.71.64-.11,1.43-.17,2.35-.17v-.66c0-.35-.12-.63-.36-.85-.24-.22-.64-.33-1.18-.33-.41,0-.77.05-1.08.15-.31.1-.56.2-.77.29-.21.1-.32.15-.34.15-.09,0-.2-.09-.31-.28s-.17-.33-.17-.42c0-.12.12-.25.37-.39.25-.14.58-.26.99-.36.41-.1.83-.15,1.27-.15.87,0,1.54.19,2.03.58.48.39.73.93.73,1.62v3.14c0,.62.03,1.06.08,1.32.06.27.08.41.08.44,0,.11-.09.19-.27.25-.18.05-.34.08-.49.08-.13,0-.23-.07-.29-.22-.06-.14-.11-.3-.14-.46-.03-.16-.05-.26-.06-.31-.63.7-1.42,1.05-2.35,1.05-.72,0-1.3-.18-1.74-.53ZM90.83,15.2c.33-.17.67-.41,1.02-.71v-1.65c-.7,0-1.27.04-1.71.08-.44.05-.83.18-1.17.39-.34.21-.5.55-.5.99,0,.37.1.66.3.85.2.2.5.29.89.29.46,0,.85-.08,1.18-.25Z"/>
        <path class="cls-1" d="M101.99,13.48l-2.49-4.34c-.08-.14-.2-.35-.34-.63h-.06c.02.18.03.44.03.78v6.82c0,.21-.19.31-.56.31h-.1c-.37,0-.56-.1-.56-.31V6.87c0-.21.19-.31.56-.31h.5c.3,0,.49.08.59.25l2.65,4.59c.17.29.29.58.36.88.07-.23.22-.54.43-.92l2.58-4.55c.09-.17.29-.25.59-.25h.46c.37,0,.56.1.56.31v9.24c0,.21-.19.31-.56.31h-.1c-.37,0-.56-.1-.56-.31v-6.73c0-.35,0-.6.03-.77h-.06c-.14.27-.25.48-.34.62l-2.45,4.26c-.06.12-.17.18-.31.18h-.56c-.14,0-.24-.06-.31-.18Z"/>
        <path class="cls-1" d="M110.8,7.43v-.78c0-.22.22-.34.67-.34.41,0,.62.11.62.34v.78c0,.22-.22.34-.67.34-.41,0-.62-.11-.62-.34ZM110.85,16.11v-6.76c0-.21.19-.31.56-.31h.06c.37,0,.56.1.56.31v6.76c0,.21-.19.31-.56.31h-.06c-.37,0-.56-.1-.56-.31Z"/>
        <path class="cls-1" d="M116.01,16.37c-.34-.1-.61-.22-.81-.36s-.3-.27-.3-.38c0-.09.06-.23.17-.42.12-.19.22-.28.31-.28.02,0,.11.05.27.15.16.1.36.2.59.28.24.08.5.13.79.13.91,0,1.37-.38,1.37-1.13,0-.32-.1-.57-.31-.76-.21-.19-.57-.35-1.09-.5-.74-.21-1.25-.48-1.53-.81-.28-.32-.42-.75-.42-1.29,0-.39.1-.74.3-1.05s.48-.55.83-.72c.35-.17.75-.26,1.2-.26.48,0,.9.06,1.28.18.38.12.57.26.57.42,0,.12-.05.28-.16.47-.11.19-.2.29-.29.29-.03,0-.15-.07-.37-.19-.22-.12-.52-.17-.9-.17-.35,0-.65.08-.89.24-.24.16-.36.37-.36.64,0,.32.08.57.25.76.17.19.45.34.84.46.6.19,1.05.37,1.36.55.31.18.54.41.67.67.13.27.2.61.2,1.04s-.11.78-.33,1.11c-.22.33-.52.59-.9.78-.38.19-.8.29-1.25.29-.4,0-.77-.05-1.11-.15Z"/>
        <path class="cls-1" d="M122.66,15.94c-.44-.35-.66-.88-.66-1.57,0-.74.22-1.29.67-1.66.44-.37.99-.61,1.63-.71.64-.11,1.43-.17,2.35-.17v-.66c0-.35-.12-.63-.36-.85-.24-.22-.64-.33-1.18-.33-.41,0-.77.05-1.08.15-.31.1-.56.2-.77.29-.21.1-.32.15-.34.15-.09,0-.2-.09-.31-.28s-.17-.33-.17-.42c0-.12.12-.25.37-.39.25-.14.58-.26.99-.36.41-.1.83-.15,1.27-.15.87,0,1.54.19,2.03.58.48.39.73.93.73,1.62v3.14c0,.62.03,1.06.08,1.32.06.27.08.41.08.44,0,.11-.09.19-.27.25-.18.05-.34.08-.49.08-.13,0-.23-.07-.29-.22-.06-.14-.11-.3-.14-.46-.03-.16-.05-.26-.06-.31-.63.7-1.42,1.05-2.35,1.05-.72,0-1.3-.18-1.74-.53ZM125.63,15.2c.33-.17.67-.41,1.02-.71v-1.65c-.7,0-1.27.04-1.71.08-.44.05-.83.18-1.17.39-.34.21-.5.55-.5.99,0,.37.1.66.3.85.2.2.5.29.89.29.46,0,.85-.08,1.18-.25Z"/>
        <path class="cls-1" d="M132.11,16.05c-.37-.28-.55-.79-.55-1.51v-4.47h-.7c-.09,0-.16-.03-.21-.1-.05-.06-.07-.17-.07-.32v-.17c0-.15.02-.26.07-.32.05-.06.12-.1.21-.1h.7l.17-1.47c.03-.21.18-.31.45-.31h.14c.28,0,.42.1.42.31v1.47h1.18c.1,0,.17.03.22.1.04.07.06.17.06.32v.17c0,.15-.02.26-.06.32-.04.07-.11.1-.22.1h-1.18v4.35c0,.39.07.66.2.81s.32.22.55.22c.18,0,.31-.01.4-.04.09-.02.16-.04.2-.04.08,0,.15.09.21.26.06.17.08.31.08.4,0,.28-.34.42-1.02.42-.47,0-.88-.14-1.25-.43Z"/>
        <path class="cls-1" d="M137.57,15.52c-.56-.63-.83-1.55-.83-2.76s.28-2.15.84-2.8,1.36-.98,2.41-.98,1.81.32,2.36.97c.55.65.82,1.58.82,2.81s-.27,2.13-.8,2.77c-.54.63-1.33.94-2.37.94s-1.86-.32-2.42-.95ZM141.46,14.8c.33-.44.49-1.13.49-2.06s-.16-1.62-.49-2.07c-.33-.45-.83-.67-1.51-.67s-1.18.22-1.5.67-.48,1.14-.48,2.08.16,1.62.48,2.06.82.67,1.5.67,1.19-.22,1.51-.67Z"/>
      </g>
      <g>
        <path class="cls-1" d="M64.36,34.89v-9.1c0-.15.03-.26.1-.32s.17-.1.32-.1h2.84c.82,0,1.55.2,2.18.59s.95,1.11.95,2.16c0,.77-.18,1.38-.55,1.81-.36.43-.77.72-1.22.86-.45.15-.85.22-1.22.22h-2.17v3.89c0,.21-.19.31-.56.31h-.11c-.37,0-.56-.1-.56-.31ZM67.78,29.94c.4,0,.78-.14,1.15-.41.36-.27.55-.74.55-1.41,0-.62-.19-1.06-.56-1.31-.37-.25-.82-.37-1.33-.37h-1.99v3.5h2.18Z"/>
        <path class="cls-1" d="M74.15,34.3c-.56-.63-.83-1.55-.83-2.76s.28-2.15.84-2.8,1.36-.98,2.41-.98,1.81.32,2.36.97c.55.65.82,1.58.82,2.81s-.27,2.13-.8,2.77c-.54.63-1.33.94-2.37.94s-1.86-.32-2.42-.95ZM78.04,33.58c.33-.44.49-1.13.49-2.06s-.16-1.62-.49-2.07c-.33-.45-.83-.67-1.51-.67s-1.18.22-1.5.67-.48,1.14-.48,2.08.16,1.62.48,2.06.82.67,1.5.67,1.19-.22,1.51-.67Z"/>
        <path class="cls-1" d="M83.17,34.89v-4.91c0-.62-.03-1.06-.08-1.32-.06-.27-.08-.41-.08-.44,0-.11.09-.19.27-.25.18-.05.34-.08.49-.08.13,0,.23.07.29.2.06.14.11.28.14.43s.05.25.06.29c.49-.7,1.04-1.05,1.62-1.05.26,0,.46.05.6.15s.21.23.21.39-.03.32-.08.5c-.06.17-.12.26-.2.26-.05,0-.14-.03-.27-.08-.14-.05-.3-.08-.5-.08-.21,0-.42.06-.61.19-.19.13-.35.26-.48.41-.13.15-.2.23-.2.25v5.12c0,.21-.19.31-.56.31h-.06c-.37,0-.56-.1-.56-.31Z"/>
        <path class="cls-1" d="M90.49,34.83c-.37-.28-.55-.79-.55-1.51v-4.47h-.7c-.09,0-.16-.03-.21-.1-.05-.06-.07-.17-.07-.32v-.17c0-.15.02-.26.07-.32.05-.06.12-.1.21-.1h.7l.17-1.47c.03-.21.18-.31.45-.31h.14c.28,0,.42.1.42.31v1.47h1.18c.1,0,.17.03.22.1.04.07.06.17.06.32v.17c0,.15-.02.26-.06.32-.04.07-.11.1-.22.1h-1.18v4.35c0,.39.07.66.2.81s.32.22.55.22c.18,0,.31-.01.4-.04.09-.02.16-.04.2-.04.08,0,.15.09.21.26.06.17.08.31.08.4,0,.28-.34.42-1.02.42-.47,0-.88-.14-1.25-.43Z"/>
        <path class="cls-1" d="M96.14,34.89v-6.03h-.56c-.09,0-.16-.03-.21-.1-.05-.06-.07-.17-.07-.32v-.17c0-.15.02-.26.07-.32.05-.06.12-.1.21-.1h.56v-1.33c0-.74.18-1.24.55-1.52.36-.28.78-.41,1.26-.41.68,0,1.02.14,1.02.42,0,.09-.03.23-.08.4-.06.17-.13.26-.21.26-.05,0-.11-.01-.2-.04-.09-.02-.22-.04-.4-.04-.24,0-.43.07-.56.2-.13.14-.2.41-.2.83v1.22h1.22c.1,0,.18.03.22.1.04.07.06.17.06.32v.17c0,.15-.02.26-.06.32-.04.07-.11.1-.22.1h-1.22v6.03c0,.21-.19.31-.56.31h-.06c-.37,0-.56-.1-.56-.31Z"/>
        <path class="cls-1" d="M102.18,34.3c-.56-.63-.83-1.55-.83-2.76s.28-2.15.84-2.8,1.36-.98,2.41-.98,1.81.32,2.36.97c.55.65.82,1.58.82,2.81s-.27,2.13-.8,2.77c-.54.63-1.33.94-2.37.94s-1.86-.32-2.42-.95ZM106.06,33.58c.33-.44.49-1.13.49-2.06s-.16-1.62-.49-2.07c-.33-.45-.83-.67-1.51-.67s-1.18.22-1.5.67-.48,1.14-.48,2.08.16,1.62.48,2.06.82.67,1.5.67,1.19-.22,1.51-.67Z"/>
        <path class="cls-1" d="M111.64,34.83c-.37-.28-.55-.79-.55-1.51v-8.37c0-.21.19-.31.56-.31h.06c.37,0,.56.1.56.31v8.26c0,.39.07.66.2.81s.32.22.55.22c.18,0,.31-.01.4-.04.09-.02.16-.04.2-.04.08,0,.15.09.21.26s.08.31.08.4c0,.28-.34.42-1.02.42-.47,0-.88-.14-1.25-.43Z"/>
        <path class="cls-1" d="M116.72,26.21v-.78c0-.22.22-.34.67-.34.41,0,.62.11.62.34v.78c0,.22-.22.34-.67.34-.41,0-.62-.11-.62-.34ZM116.77,34.89v-6.76c0-.21.19-.31.56-.31h.06c.37,0,.56.1.56.31v6.76c0,.21-.19.31-.56.31h-.06c-.37,0-.56-.1-.56-.31Z"/>
        <path class="cls-1" d="M122.21,34.3c-.56-.63-.83-1.55-.83-2.76s.28-2.15.84-2.8,1.36-.98,2.41-.98,1.81.32,2.36.97c.55.65.82,1.58.82,2.81s-.27,2.13-.8,2.77c-.54.63-1.33.94-2.37.94s-1.86-.32-2.42-.95ZM126.1,33.58c.33-.44.49-1.13.49-2.06s-.16-1.62-.49-2.07c-.33-.45-.83-.67-1.51-.67s-1.18.22-1.5.67-.48,1.14-.48,2.08.16,1.62.48,2.06.82.67,1.5.67,1.19-.22,1.51-.67Z"/>
      </g>
      <g>
        <g class="cls-3">
          <g class="cls-7">
            <path class="cls-4" d="M15.54,17.77s-1.78.2-1.66,2.11c.12,1.91,1.92,1.82,1.92,1.82,0,0-.28,5.34,6.12,6.2"/>
            <path class="cls-4" d="M21.3,5.57c-1.31-.05-6.74,1.61-7.68,4.83-.94,3.22-.69,6.89-2.22,10.35-1.53,3.46.99,6.28,1.53,7.15s2.91,5.02-.35,6.5"/>
            <path class="cls-4" d="M14.16,23.49s2.19,3.57,1.24,5.26"/>
            <path class="cls-4" d="M19.81,27.53l.33,2.79-4.04,1.29s2.71,2.16,5.87,2.18"/>
            <path class="cls-4" d="M13.22,32.48s-4,1.04-4.86,1.53-1.65,1.03-2.21,2.02-8.62,15.59-8.62,15.59"/>
            <path class="cls-4" d="M28.43,17.77s1.78.2,1.66,2.11-1.92,1.82-1.92,1.82c0,0,.28,5.34-6.12,6.2"/>
            <path class="cls-4" d="M31.39,34.41c-3.26-1.48-.89-5.64-.35-6.5.54-.86,3.06-3.69,1.53-7.15-1.53-3.46-1.28-7.13-2.22-10.35-.94-3.22-6.37-4.88-7.68-4.83"/>
            <path class="cls-4" d="M29.82,23.49s-2.19,3.57-1.24,5.26"/>
            <path class="cls-4" d="M24.16,27.53l-.33,2.79,4.04,1.29s-2.71,2.16-5.87,2.18"/>
            <path class="cls-4" d="M30.76,32.48s4,1.04,4.86,1.53,1.65,1.03,2.21,2.02c.56.99,8.62,15.59,8.62,15.59"/>
            <path class="cls-4" d="M17.62,13.46s2.3,3.91,4.48,3.47"/>
            <path class="cls-4" d="M21.7,12.91s2.73,3.57,4.61,3.59"/>
            <path class="cls-4" d="M22.04,19.57l.05.93s-1.43,1.07-.02,1.55"/>
            <path class="cls-4" d="M20.73,24.3s1.07,2.03,2.57,0"/>
            <circle class="cls-6" cx="18.95" cy="19.34" r=".14"/>
            <circle class="cls-6" cx="25.25" cy="19.34" r=".14"/>
          </g>
        </g>
        <circle class="cls-5" cx="21.99" cy="21.99" r="21.5"/>
      </g>
    </g>
  </g>
</svg>