<?xml version="1.0" encoding="UTF-8"?>
<svg id="_レイヤー_2" data-name="レイヤー 2" xmlns="http://www.w3.org/2000/svg" viewBox="0 0 127.73 75.48">
  <defs>
    <style>
      .cls-1 {
        fill: #333;
        stroke-width: 0px;
      }
    </style>
  </defs>
  <g id="img">
    <g>
      <path class="cls-1" d="M123.01,35.48h-16.55c-2.61,0-4.72,2.08-4.72,4.65v27.92c0,4.11,3.38,7.44,7.56,7.44h10.88c4.18,0,7.56-3.33,7.56-7.44v-27.92c0-2.57-2.12-4.65-4.72-4.65ZM114.73,73.08c-.64,0-1.17-.51-1.17-1.15s.52-1.15,1.17-1.15,1.17.51,1.17,1.15-.52,1.15-1.17,1.15ZM111.73,37.23h6c.34,0,.61.27.61.6s-.27.6-.61.6h-6c-.34,0-.61-.27-.61-.6,0-.33.27-.6.61-.6ZM104.4,68.05v-26.99h20.67v26.99c0,.3-.03.59-.09.88h-20.5c-.05-.28-.09-.58-.09-.88Z"/>
      <path class="cls-1" d="M84.02,0H5.98C2.68,0,0,2.65,0,5.92v49.44c0,3.27,2.68,5.92,5.98,5.92h32.69v1.32c0,3.27-2.68,5.92-5.98,5.92h-8.79v6.96h42.19v-6.96h-8.79c-3.3,0-5.98-2.65-5.98-5.92v-1.32h32.69c3.3,0,5.98-2.65,5.98-5.92V5.92c0-3.27-2.68-5.92-5.98-5.92ZM81.56,48.16c0,1.09-.89,1.97-1.99,1.97H10.43c-1.1,0-1.99-.88-1.99-1.97V10.33c0-1.09.89-1.97,1.99-1.97h69.14c1.1,0,1.99.88,1.99,1.97v37.83h0Z"/>
    </g>
  </g>
</svg>