<?xml version="1.0" encoding="UTF-8"?>
<svg id="_レイヤー_2" data-name="レイヤー 2" xmlns="http://www.w3.org/2000/svg" viewBox="0 0 198 196">
  <defs>
    <style>
      .cls-1 {
        fill: #9dc4c2;
        stroke-width: 0px;
      }
    </style>
  </defs>
  <g id="back">
    <path class="cls-1" d="M25.82,186.62c-13.29-9.72-19.68-28.86-22.85-46.52C-.33,122.57-.25,106.26.27,89.59c.65-16.66,1.88-33.67,9.66-47.16,7.78-13.49,22.25-23.33,37.84-30.66C63.49,4.45,80.35-.5,97.27.04c16.92.54,33.75,6.69,50.06,15.73,16.17,9.03,31.56,20.94,40.94,36.73,9.37,15.93,12.63,35.6,6.86,52.21-5.76,16.48-20.39,29.78-32.85,42.86-12.33,13.1-22.36,26.13-35.74,34.46-13.51,8.18-30.26,11.8-48.83,13.26-18.45,1.6-38.61,1.18-51.89-8.67Z"/>
  </g>
</svg>