<?xml version="1.0" encoding="UTF-8"?>
<svg id="_レイヤー_2" data-name="レイヤー 2" xmlns="http://www.w3.org/2000/svg" viewBox="0 0 322 317">
  <defs>
    <style>
      .cls-1 {
        fill: #fefe60;
        stroke-width: 0px;
      }
    </style>
  </defs>
  <g id="back">
    <path class="cls-1" d="M312.44,257.51c-13.21,22.95-42.77,36.6-70.52,44.81-27.54,8.43-53.7,11.22-80.53,13.38-26.83,1.95-54.33,3.05-77.37-6.95-23.04-10-41.4-31.32-55.95-54.88C13.51,230.09,2.56,204.07.4,176.97c-2.16-27.1,4.69-55.06,16.27-82.71,11.59-27.43,27.93-54.12,51.59-71.93C92.13,4.5,123.1-4.22,150.77,2c27.46,6.23,51.41,27.19,74.63,44.73,23.21,17.32,45.91,30.99,61.66,50.86,15.54,20.09,24.34,46.17,30,75.55,5.87,29.16,8.8,61.42-4.62,84.37Z"/>
  </g>
</svg>