<?xml version="1.0" encoding="UTF-8"?>
<svg id="_レイヤー_2" data-name="レイヤー 2" xmlns="http://www.w3.org/2000/svg" xmlns:xlink="http://www.w3.org/1999/xlink" viewBox="0 0 1000 14.46">
  <defs>
    <style>
      .cls-1 {
        stroke: #333;
        stroke-miterlimit: 10;
        stroke-width: .73px;
      }

      .cls-1, .cls-2 {
        fill: none;
      }

      .cls-3 {
        clip-path: url(#clippath);
      }

      .cls-2 {
        stroke-width: 0px;
      }
    </style>
    <clipPath id="clippath">
      <rect class="cls-2" width="1000" height="14.46"/>
    </clipPath>
  </defs>
  <g id="img">
    <g class="cls-3">
      <g>
        <line class="cls-1" x1="15.13" y1="2.3" y2="14.3"/>
        <line class="cls-1" x1="33.04" y1="2.3" x2="17.91" y2="14.3"/>
        <line class="cls-1" x1="50.94" y1="2.3" x2="35.81" y2="14.3"/>
        <line class="cls-1" x1="68.85" y1="2.3" x2="53.72" y2="14.3"/>
        <line class="cls-1" x1="86.76" y1="2.3" x2="71.63" y2="14.3"/>
        <line class="cls-1" x1="104.67" y1="2.3" x2="89.53" y2="14.3"/>
        <line class="cls-1" x1="122.57" y1="2.3" x2="107.44" y2="14.3"/>
        <line class="cls-1" x1="140.48" y1="2.3" x2="125.35" y2="14.3"/>
        <line class="cls-1" x1="158.39" y1="2.3" x2="143.25" y2="14.3"/>
        <line class="cls-1" x1="176.29" y1="2.3" x2="161.16" y2="14.3"/>
        <line class="cls-1" x1="194.2" y1="2.3" x2="179.07" y2="14.3"/>
        <line class="cls-1" x1="212.11" y1="2.3" x2="196.97" y2="14.3"/>
        <line class="cls-1" x1="230.01" y1="2.3" x2="214.88" y2="14.3"/>
        <line class="cls-1" x1="247.92" y1="2.3" x2="232.79" y2="14.3"/>
        <line class="cls-1" x1="265.83" y1="2.3" x2="250.69" y2="14.3"/>
        <line class="cls-1" x1="283.73" y1="2.3" x2="268.6" y2="14.3"/>
        <line class="cls-1" x1="301.64" y1="2.3" x2="286.51" y2="14.3"/>
        <line class="cls-1" x1="319.55" y1="2.3" x2="304.41" y2="14.3"/>
        <line class="cls-1" x1="337.45" y1="2.3" x2="322.32" y2="14.3"/>
        <line class="cls-1" x1="355.36" y1="2.3" x2="340.23" y2="14.3"/>
        <line class="cls-1" x1="373.27" y1="2.3" x2="358.13" y2="14.3"/>
        <line class="cls-1" x1="391.17" y1="2.3" x2="376.04" y2="14.3"/>
        <line class="cls-1" x1="409.08" y1="2.3" x2="393.95" y2="14.3"/>
        <line class="cls-1" x1="426.99" y1="2.3" x2="411.85" y2="14.3"/>
        <line class="cls-1" x1="444.89" y1="2.3" x2="429.76" y2="14.3"/>
        <line class="cls-1" x1="462.8" y1="2.3" x2="447.67" y2="14.3"/>
        <line class="cls-1" x1="480.71" y1="2.3" x2="465.57" y2="14.3"/>
        <line class="cls-1" x1="498.61" y1="2.3" x2="483.48" y2="14.3"/>
        <line class="cls-1" x1="516.52" y1="2.3" x2="501.39" y2="14.3"/>
        <line class="cls-1" x1="534.43" y1="2.3" x2="519.29" y2="14.3"/>
        <line class="cls-1" x1="552.33" y1="2.3" x2="537.2" y2="14.3"/>
        <line class="cls-1" x1="570.24" y1="2.3" x2="555.11" y2="14.3"/>
        <line class="cls-1" x1="588.15" y1="2.3" x2="573.01" y2="14.3"/>
        <line class="cls-1" x1="606.05" y1="2.3" x2="590.92" y2="14.3"/>
        <line class="cls-1" x1="623.96" y1="2.3" x2="608.83" y2="14.3"/>
        <line class="cls-1" x1="641.87" y1="2.3" x2="626.73" y2="14.3"/>
        <line class="cls-1" x1="659.77" y1="2.3" x2="644.64" y2="14.3"/>
        <line class="cls-1" x1="677.68" y1="2.3" x2="662.55" y2="14.3"/>
        <line class="cls-1" x1="695.59" y1="2.3" x2="680.45" y2="14.3"/>
        <line class="cls-1" x1="713.49" y1="2.3" x2="698.36" y2="14.3"/>
        <line class="cls-1" x1="731.4" y1="2.3" x2="716.27" y2="14.3"/>
        <line class="cls-1" x1="749.31" y1="2.3" x2="734.17" y2="14.3"/>
        <line class="cls-1" x1="767.21" y1="2.3" x2="752.08" y2="14.3"/>
        <line class="cls-1" x1="785.12" y1="2.3" x2="769.99" y2="14.3"/>
        <line class="cls-1" x1="803.03" y1="2.3" x2="787.89" y2="14.3"/>
        <line class="cls-1" x1="820.93" y1="2.3" x2="805.8" y2="14.3"/>
        <line class="cls-1" x1="838.84" y1="2.3" x2="823.71" y2="14.3"/>
        <line class="cls-1" x1="856.75" y1="2.3" x2="841.61" y2="14.3"/>
        <line class="cls-1" x1="874.65" y1="2.3" x2="859.52" y2="14.3"/>
        <line class="cls-1" x1="892.56" y1="2.3" x2="877.43" y2="14.3"/>
        <line class="cls-1" x1="910.47" y1="2.3" x2="895.33" y2="14.3"/>
        <line class="cls-1" x1="928.37" y1="2.3" x2="913.24" y2="14.3"/>
        <line class="cls-1" x1="946.28" y1="2.3" x2="931.15" y2="14.3"/>
        <line class="cls-1" x1="964.19" y1="2.3" x2="949.06" y2="14.3"/>
        <line class="cls-1" x1="982.09" y1="2.3" x2="966.96" y2="14.3"/>
        <line class="cls-1" x1="1000" y1="2.3" x2="984.87" y2="14.3"/>
      </g>
    </g>
  </g>
</svg>