<?xml version="1.0" encoding="UTF-8"?>
<svg id="_レイヤー_2" data-name="レイヤー 2" xmlns="http://www.w3.org/2000/svg" xmlns:xlink="http://www.w3.org/1999/xlink" viewBox="0 0 240 240">
  <defs>
    <style>
      .cls-1 {
        fill: #333;
      }

      .cls-1, .cls-2, .cls-3, .cls-4, .cls-5, .cls-6 {
        stroke-width: 0px;
      }

      .cls-7 {
        clip-path: url(#clippath);
      }

      .cls-2, .cls-8 {
        fill: none;
      }

      .cls-3 {
        fill: #95dbab;
      }

      .cls-4 {
        fill: #6d401f;
      }

      .cls-8 {
        stroke: #333;
        stroke-linecap: round;
        stroke-linejoin: round;
        stroke-width: 4.88px;
      }

      .cls-5 {
        fill: #d1b0d7;
      }

      .cls-6 {
        fill: #fff;
      }
    </style>
    <clipPath id="clippath">
      <circle class="cls-2" cx="120" cy="120" r="120"/>
    </clipPath>
  </defs>
  <g id="img">
    <g class="cls-7">
      <circle class="cls-5" cx="120" cy="120" r="120"/>
      <g>
        <path class="cls-3" d="M65.67,174.92s-32.41,5.43-36.94,14.71-56.22,100.49-56.22,100.49h290.39s-48.23-87.26-51.17-94.15c-5.17-12.1-29.64-18.05-41.99-21.05-6.08-1.47-15.5-4.28-15.5-4.28,0,0-16.6,10.1-34.25,12.06-15.21,1.69-29.86-8.41-35.5-11.85-2.35-1.43-18.83,4.07-18.83,4.07Z"/>
        <path class="cls-4" d="M120.86,15.76s35.68,4.8,43.31,23.03c7.62,18.23,11.8,58.49,18.05,68.92,6.25,10.43-9.5,41.14-16.42,51.69-3.33,5.08-3.16,10.03-.55,13.73.55.78-4.93-.75-18.89-4.49-16.49-4.42-44.88-3.59-55.16-.13-7.94,2.67-17.32,3.85-19.97,5.29-.43.24,1.84-5.32.81-8.75-3.16-10.53-22.27-42.09-20.09-48.3,6.39-18.24,15.14-51.9,14.79-64.94-.43-15.9,27.95-37.99,54.12-36.03"/>
        <path class="cls-6" d="M92.76,67.85s-10.67,12.55-11.66,18.02c-.47,2.61-12.63,1.91-11.41,15.06.94,10.11,12.01,12.85,12.01,12.85,0,0-4.82,15.36,22.71,33.25,4.45,2.9,1.14,15.26,1.49,15.33s-20.35,6.53-20.35,6.53c0,0,17.17,15.14,34.45,13.8,17.89-1.38,32.64-12.92,32.64-12.92,0,0-19.37-6.72-21.18-7.44-4.04-1.61.17-16.74.17-16.74,0,0,20.49-9.4,20.69-22.41.32-20.94,15.03-7.38,14.16-23.75-.67-12.63-7.92-12.09-13.85-13.71-2.57-.7-11.63-8.01-16.38-5.49-19.79,10.54-43.5-12.39-43.5-12.39h0Z"/>
        <g>
          <path class="cls-8" d="M79.47,87.78s-10.57,1.17-9.83,12.51c.74,11.34,11.38,10.8,11.38,10.8,0,0-1.64,31.61,36.34,36.73"/>
          <path class="cls-8" d="M113.6,15.52c-7.76-.29-39.98,9.53-45.56,28.62-5.58,19.09-4.1,40.85-13.19,61.34-9.09,20.49,5.86,37.21,9.08,42.34,3.22,5.13,17.29,29.74-2.05,38.52"/>
          <path class="cls-8" d="M71.24,121.66s12.99,21.14,7.38,31.19"/>
          <path class="cls-8" d="M104.79,145.59l1.97,16.56-23.98,7.62s16.1,12.78,34.82,12.92"/>
          <path class="cls-8" d="M65.67,174.92s-23.76,6.14-28.86,9.08c-5.09,2.94-9.81,6.08-13.13,11.97-3.32,5.89-51.17,92.35-51.17,92.35"/>
          <path class="cls-8" d="M155.95,87.78s10.57,1.17,9.83,12.51c-.74,11.34-11.38,10.8-11.38,10.8,0,0,1.64,31.61-36.34,36.73"/>
          <path class="cls-8" d="M173.53,186.35c-19.34-8.79-5.27-33.4-2.05-38.52,3.22-5.12,18.17-21.84,9.08-42.34-9.08-20.49-7.61-42.26-13.19-61.34-5.58-19.09-37.8-28.91-45.56-28.62"/>
          <path class="cls-8" d="M164.18,121.66s-12.99,21.14-7.38,31.19"/>
          <path class="cls-8" d="M130.63,145.59l-1.97,16.56,23.98,7.62s-16.1,12.78-34.82,12.92"/>
          <path class="cls-8" d="M169.75,174.92s23.76,6.14,28.86,9.08c5.09,2.94,9.81,6.08,13.13,11.97,3.31,5.89,51.17,92.35,51.17,92.35"/>
          <path class="cls-8" d="M91.79,62.24s13.68,23.15,26.59,20.53"/>
          <path class="cls-8" d="M116.01,58.97s16.19,21.15,27.34,21.27"/>
          <path class="cls-8" d="M118.05,98.48l.33,5.5s-8.49,6.31-.13,9.16"/>
          <path class="cls-8" d="M110.22,126.48s6.36,12,15.23,0"/>
          <circle class="cls-1" cx="137.08" cy="97.07" r="3"/>
          <circle class="cls-1" cx="99.67" cy="97.07" r="3"/>
        </g>
      </g>
    </g>
  </g>
</svg>