<?xml version="1.0" encoding="UTF-8"?>
<svg id="_レイヤー_2" data-name="レイヤー 2" xmlns="http://www.w3.org/2000/svg" viewBox="0 0 205 203">
  <defs>
    <style>
      .cls-1 {
        fill: #fefe60;
        stroke-width: 0px;
      }
    </style>
  </defs>
  <g id="img">
    <path class="cls-1" d="M198.91,164.91c-8.41,14.7-27.23,23.44-44.9,28.7-17.53,5.4-34.19,7.18-51.27,8.57-17.08,1.25-34.59,1.95-49.26-4.45-14.67-6.4-26.36-20.05-35.62-35.14C8.6,147.35,1.63,130.68.25,113.33c-1.38-17.35,2.98-35.26,10.36-52.97,7.38-17.57,17.78-34.66,32.84-46.07C58.65,2.88,78.37-2.7,95.99,1.28c17.48,3.99,32.73,17.41,47.51,28.64,14.78,11.09,29.23,19.85,39.26,32.57,9.89,12.87,15.5,29.57,19.1,48.38,3.74,18.68,5.6,39.33-2.94,54.03Z"/>
  </g>
</svg>