<?xml version="1.0" encoding="UTF-8"?>
<svg id="_レイヤー_2" data-name="レイヤー 2" xmlns="http://www.w3.org/2000/svg" xmlns:xlink="http://www.w3.org/1999/xlink" viewBox="0 0 190 190">
  <defs>
    <style>
      .cls-1 {
        clip-path: url(#clippath);
      }

      .cls-2 {
        stroke-width: 0px;
      }

      .cls-2, .cls-3, .cls-4 {
        fill: none;
      }

      .cls-3 {
        stroke-width: 3.72px;
      }

      .cls-3, .cls-4 {
        stroke: #333;
        stroke-linecap: round;
        stroke-linejoin: round;
      }

      .cls-4 {
        stroke-width: 3.46px;
      }
    </style>
    <clipPath id="clippath">
      <rect class="cls-2" width="190" height="190"/>
    </clipPath>
  </defs>
  <g id="img">
    <g class="cls-1">
      <g>
        <path class="cls-3" d="M65.89,69.17s-8.04.89-7.48,9.54,8.66,8.24,8.66,8.24c0,0-1.24,24.11,27.66,28.01"/>
        <path class="cls-3" d="M91.87,14.07c-5.91-.22-30.42,7.27-34.67,21.82-4.25,14.55-3.12,31.15-10.04,46.77-6.92,15.63,4.46,28.37,6.91,32.28s13.16,22.67-1.56,29.37"/>
        <path class="cls-3" d="M59.64,95s9.89,16.12,5.62,23.78"/>
        <path class="cls-3" d="M85.17,113.25l1.5,12.62-18.25,5.81s12.25,9.75,26.5,9.85"/>
        <path class="cls-3" d="M55.39,135.61s-18.08,4.68-21.96,6.92c-3.88,2.24-7.47,4.63-9.99,9.12S-15.5,222.07-15.5,222.07"/>
        <path class="cls-3" d="M124.1,69.17s8.04.89,7.48,9.54-8.66,8.24-8.66,8.24c0,0,1.24,24.11-27.66,28.01"/>
        <path class="cls-3" d="M137.48,144.32c-14.72-6.7-4.01-25.47-1.56-29.37,2.45-3.9,13.83-16.65,6.91-32.28-6.91-15.63-5.79-32.22-10.04-46.77s-28.76-22.05-34.67-21.82"/>
        <path class="cls-3" d="M130.36,95s-9.89,16.12-5.62,23.78"/>
        <path class="cls-3" d="M104.83,113.25l-1.5,12.62,18.25,5.81s-12.25,9.75-26.5,9.85"/>
        <path class="cls-3" d="M134.6,135.61s18.08,4.68,21.96,6.92,7.47,4.63,9.99,9.12c2.52,4.49,38.94,70.41,38.94,70.41"/>
        <path class="cls-3" d="M75.27,49.69s10.41,17.65,20.23,15.66"/>
        <path class="cls-3" d="M93.71,47.21s12.32,16.13,20.81,16.21"/>
        <path class="cls-3" d="M95.25,77.32l.25,4.19s-6.46,4.81-.1,6.98"/>
        <path class="cls-3" d="M89.3,98.67s4.84,9.15,11.59,0"/>
        <circle class="cls-4" cx="81.27" cy="76.25" r=".62"/>
        <circle class="cls-4" cx="109.73" cy="76.25" r=".62"/>
      </g>
    </g>
  </g>
</svg>