<?xml version="1.0" encoding="UTF-8"?>
<svg id="_レイヤー_2" data-name="レイヤー 2" xmlns="http://www.w3.org/2000/svg" viewBox="0 0 108 76">
  <defs>
    <style>
      .cls-1 {
        fill: #333;
        stroke-width: 0px;
      }
    </style>
  </defs>
  <g id="img">
    <g>
      <path class="cls-1" d="M107.61,66.17l-9.62-11.87V4.37c0-2.41-2-4.37-4.45-4.37H14.46c-2.46,0-4.45,1.96-4.45,4.37v49.92L.39,66.17c-.25.31-.39.69-.39,1.09v5.25c0,1.93,1.59,3.49,3.55,3.49h100.89c1.96,0,3.55-1.56,3.55-3.49v-5.25c0-.4-.14-.78-.39-1.09ZM16.29,6.17h75.42v41.95H16.29V6.17ZM64.15,71.85h-20.3v-5.28h20.3v5.28Z"/>
      <path class="cls-1" d="M43.12,19.66s-.05,0-.07.02l-12.13,8.13s-.05.06-.05.1v2.19s.02.08.05.09l12.13,8.13s.04.02.07.02c.02,0,.04,0,.05-.01.04-.02.06-.06.06-.1v-3.48s-.02-.07-.05-.09l-8.42-5.65,8.42-5.64s.05-.06.05-.1v-3.48s-.02-.08-.06-.1c-.02-.01-.04-.01-.05-.01Z"/>
      <path class="cls-1" d="M64.56,19.68s-.04-.02-.07-.02c-.02,0-.04,0-.05.01-.04.02-.06.06-.06.1v3.48s.02.07.05.09l8.42,5.64-8.42,5.65s-.05.06-.05.1v3.48s.02.08.06.1c.02,0,.04.01.05.01.02,0,.05,0,.07-.02l12.13-8.13s.05-.06.05-.09v-2.19s-.02-.07-.05-.1l-12.13-8.13Z"/>
      <path class="cls-1" d="M59.35,17.75h-3.39s-.09.03-.11.08l-7.7,21.92s0,.07.02.1c.02.03.06.05.1.05h3.39c.05,0,.09-.03.11-.08l7.7-21.92s0-.08-.01-.11c-.02-.03-.06-.05-.1-.05Z"/>
    </g>
  </g>
</svg>