<?xml version="1.0" encoding="UTF-8"?>
<svg id="_レイヤー_2" data-name="レイヤー 2" xmlns="http://www.w3.org/2000/svg" viewBox="0 0 310.83 356.57">
  <defs>
    <style>
      .cls-1 {
        fill: #fefe60;
        stroke-width: 0px;
      }
    </style>
  </defs>
  <g id="back">
    <path class="cls-1" d="M310.47,102.11C304.85,91.91,202.98,0,202.98,0c0,0-79.19,25.22-94.4,33.7C93.37,42.17,3.71,203.18,0,205.15c12.42,29.6,30.59,91.49,45.34,100.51,14.75,9.02,92.96,50.91,92.96,50.91,0,0,101.42-43.79,109.2-56.81,7.12-15.96,68.59-187.44,62.97-197.65ZM222.95,264.7c-5.55,9.29-77.95,40.55-77.95,40.55,0,0-55.83-29.9-66.35-36.34-10.53-6.44-23.5-50.61-32.36-71.74,2.65-1.4,66.64-116.33,77.5-122.38,10.86-6.05,67.38-24.05,67.38-24.05,0,0,72.71,65.6,76.72,72.89s-39.87,129.68-44.95,141.08Z"/>
  </g>
</svg>