<?xml version="1.0" encoding="UTF-8"?>
<svg id="_レイヤー_2" data-name="レイヤー 2" xmlns="http://www.w3.org/2000/svg" viewBox="0 0 333.1 302.93">
  <defs>
    <style>
      .cls-1 {
        fill: #fefe60;
        stroke-width: 0px;
      }
    </style>
  </defs>
  <g id="back">
    <path class="cls-1" d="M287.9,15.81S206.33-.12,188.92,0C171.5.12,15.51,98.26,11.31,98.2c-3.33,31.93-17.13,94.94-8.53,109.93,8.6,15,57.07,89.31,57.07,89.31,0,0,109.99,10.32,123.07,2.64,13.91-10.58,150.21-131.43,150.19-143.08S287.9,15.81,287.9,15.81ZM178.23,257.55c-9.33,5.48-87.84-1.89-87.84-1.89,0,0-34.59-53.05-40.73-63.75s3.71-55.68,6.09-78.47c3,.04,114.34-70.01,126.77-70.09,12.43-.09,70.65,11.28,70.65,11.28,0,0,32.25,92.47,32.27,100.78s-97.27,94.58-107.2,102.13Z"/>
  </g>
</svg>