<?xml version="1.0" encoding="UTF-8"?>
<svg id="_レイヤー_2" data-name="レイヤー 2" xmlns="http://www.w3.org/2000/svg" viewBox="0 0 137 135">
  <defs>
    <style>
      .cls-1 {
        fill: #fefe60;
        stroke-width: 0px;
      }
    </style>
  </defs>
  <g id="back">
    <path class="cls-1" d="M132.93,109.67c-5.62,9.77-18.2,15.59-30.01,19.08-11.72,3.59-22.85,4.78-34.26,5.7-11.42.83-23.12,1.3-32.92-2.96-9.8-4.26-17.62-13.34-23.81-23.37C5.75,97.99,1.09,86.91.17,75.37c-.92-11.54,1.99-23.45,6.92-35.22,4.93-11.68,11.89-23.05,21.95-30.63C39.2,1.92,52.37-1.8,64.15.85c11.68,2.65,21.87,11.58,31.75,19.05,9.88,7.38,19.53,13.2,26.23,21.66,6.61,8.56,10.36,19.66,12.76,32.18,2.5,12.42,3.74,26.15-1.97,35.93Z"/>
  </g>
</svg>