<?xml version="1.0" encoding="UTF-8"?>
<svg id="_レイヤー_2" data-name="レイヤー 2" xmlns="http://www.w3.org/2000/svg" viewBox="0 0 244 225">
  <defs>
    <style>
      .cls-1 {
        fill: #9dc4c2;
        stroke-width: 0px;
      }
    </style>
  </defs>
  <g id="back">
    <path class="cls-1" d="M178.29,5.01C156.84-.02,136.66-1.95,118.48,2.45c-18.09,4.61-34.11,15.75-52.73,26.14-18.77,10.33-40.07,20.12-52.51,36.7C.73,82.02-2.72,105.45,2.07,126.85c4.86,21.25,17.88,40.26,32.83,56.31,15.1,16.1,31.83,29.12,50.7,35.82,18.86,6.7,39.65,7.16,60.01,4.54,20.21-2.69,40.07-8.62,53.72-21.09,13.65-12.47,21.18-31.29,27.95-49.9,6.62-18.68,12.61-37.1,15.23-58.14,2.83-21.12,2.55-45.1-8.9-60.87-11.39-15.92-33.95-23.65-55.31-28.48ZM204.15,52.57c8.46,11.63,8.69,29.28,6.62,44.83-1.92,15.49-6.32,29.05-11.19,42.8-4.98,13.7-10.52,27.55-20.58,36.73-10.06,9.18-24.7,13.53-39.62,15.49-15.02,1.92-30.36,1.56-44.28-3.39-13.92-4.95-26.28-14.54-37.43-26.41-11.04-11.82-20.67-25.83-24.27-41.49-3.56-15.76-1.03-33.02,8.19-45.33,9.17-12.2,24.87-19.39,38.72-26.98,13.73-7.64,25.54-15.83,38.89-19.21,13.41-3.23,28.3-1.79,44.13,1.94,15.77,3.57,32.42,9.28,40.83,21.02Z"/>
  </g>
</svg>