<?xml version="1.0" encoding="UTF-8"?>
<svg id="_レイヤー_2" data-name="レイヤー 2" xmlns="http://www.w3.org/2000/svg" xmlns:xlink="http://www.w3.org/1999/xlink" viewBox="0 0 255 6">
  <defs>
    <style>
      .cls-1 {
        clip-path: url(#clippath);
      }

      .cls-2 {
        stroke-width: 0px;
      }

      .cls-2, .cls-3 {
        fill: none;
      }

      .cls-3 {
        stroke: #333;
        stroke-miterlimit: 10;
        stroke-width: 1.01px;
      }
    </style>
    <clipPath id="clippath">
      <rect class="cls-2" width="255" height="6"/>
    </clipPath>
  </defs>
  <g id="img">
    <g class="cls-1">
      <g>
        <line class="cls-3" x1="6.23" y1=".88" y2="6"/>
        <line class="cls-3" x1="16.18" y1=".84" x2="9.95" y2="5.96"/>
        <line class="cls-3" x1="26.13" y1=".81" x2="19.9" y2="5.93"/>
        <line class="cls-3" x1="36.08" y1=".77" x2="29.85" y2="5.89"/>
        <line class="cls-3" x1="46.03" y1=".74" x2="39.8" y2="5.86"/>
        <line class="cls-3" x1="55.98" y1=".7" x2="49.75" y2="5.82"/>
        <line class="cls-3" x1="65.93" y1=".67" x2="59.7" y2="5.79"/>
        <line class="cls-3" x1="75.89" y1=".63" x2="69.66" y2="5.75"/>
        <line class="cls-3" x1="85.84" y1=".6" x2="79.61" y2="5.72"/>
        <line class="cls-3" x1="95.79" y1=".56" x2="89.56" y2="5.68"/>
        <line class="cls-3" x1="105.74" y1=".53" x2="99.51" y2="5.65"/>
        <line class="cls-3" x1="115.69" y1=".49" x2="109.46" y2="5.61"/>
        <line class="cls-3" x1="125.64" y1=".46" x2="119.41" y2="5.58"/>
        <line class="cls-3" x1="135.59" y1=".42" x2="129.36" y2="5.54"/>
        <line class="cls-3" x1="145.54" y1=".39" x2="139.31" y2="5.51"/>
        <line class="cls-3" x1="155.49" y1=".35" x2="149.26" y2="5.47"/>
        <line class="cls-3" x1="165.44" y1=".32" x2="159.21" y2="5.44"/>
        <line class="cls-3" x1="175.39" y1=".28" x2="169.16" y2="5.4"/>
        <line class="cls-3" x1="185.34" y1=".25" x2="179.11" y2="5.37"/>
        <line class="cls-3" x1="195.3" y1=".21" x2="189.07" y2="5.33"/>
        <line class="cls-3" x1="205.25" y1=".18" x2="199.02" y2="5.3"/>
        <line class="cls-3" x1="215.2" y1=".14" x2="208.97" y2="5.26"/>
        <line class="cls-3" x1="225.15" y1=".11" x2="218.92" y2="5.23"/>
        <line class="cls-3" x1="235.1" y1=".07" x2="228.87" y2="5.19"/>
        <line class="cls-3" x1="245.05" y1=".04" x2="238.82" y2="5.16"/>
        <line class="cls-3" x1="255" x2="248.77" y2="5.12"/>
      </g>
    </g>
  </g>
</svg>